<?xml version="1.0" encoding="UTF-8" standalone="no"?>
<svg
   width="16"
   height="16"
   viewBox="0 0 16 16"
   version="1.1"
   id="svg2"
   sodipodi:docname="favicon.svg"
   inkscape:version="1.4.3 (0d15f75042, 2025-12-25)"
   xmlns:inkscape="http://www.inkscape.org/namespaces/inkscape"
   xmlns:sodipodi="http://sodipodi.sourceforge.net/DTD/sodipodi-0.dtd"
   xmlns="http://www.w3.org/2000/svg"
   xmlns:svg="http://www.w3.org/2000/svg">
  <defs
     id="defs2" />
  <sodipodi:namedview
     id="namedview2"
     pagecolor="#505050"
     bordercolor="#eeeeee"
     borderopacity="1"
     inkscape:showpageshadow="0"
     inkscape:pageopacity="0"
     inkscape:pagecheckerboard="0"
     inkscape:deskcolor="#505050"
     inkscape:zoom="25.476498"
     inkscape:cx="2.2373561"
     inkscape:cy="8.7727912"
     inkscape:window-width="1918"
     inkscape:window-height="1052"
     inkscape:window-x="0"
     inkscape:window-y="0"
     inkscape:window-maximized="1"
     inkscape:current-layer="svg2" />
  <path
     d="M 15.413989,7.6212069 C 14.688669,7.1933713 13.436882,6.9878953 11.522579,6.9839924 12.315455,6.4636394 12.380902,6.1180078 11.756321,5.7495938 11.081369,5.3514689 9.0195138,4.7665127 5.6694501,5.4252155 L -0.00122965,6.5402072 7.3426381,10.872043 13.065663,9.7467593 c 3.576889,-0.7033021 3.227662,-1.609156 2.351234,-2.1261242 M 3.8781518,6.7677943 6.7222157,6.2085829 c 1.203929,-0.2367212 2.1416571,-0.191336 2.6856471,0.1295407 0.533917,0.3149347 0.180474,0.6141949 -1.0234553,0.8509161 L 5.5403441,7.7482509 Z M 6.7995806,8.4910212 9.9228168,7.8769182 C 11.196539,7.626474 12.192011,7.6921971 12.816592,8.060611 13.4311,8.423083 13.100504,8.7495427 11.826783,8.9999869 L 8.7035469,9.6140903 Z"
     aria-label="B"
     style="font-weight:600;font-size:6px;font-family:FreeSans;fill:#f9f9f9;stroke-width:1.14357"
     id="path2" />
</svg>
